<svg width="239" height="239" viewBox="0 0 239 239" fill="none" xmlns="http://www.w3.org/2000/svg">
<path d="M120.854 22.4062C66.2478 21.6687 21.6687 66.2478 22.4063 120.854C23.1345 173.224 65.7764 215.866 118.146 216.594C172.762 217.341 217.331 172.762 216.584 118.156C215.866 65.7763 173.224 23.1344 120.854 22.4062ZM113.016 112.251L137.08 84.7096C138.383 83.2178 140.226 82.305 142.203 82.1719C144.179 82.0388 146.128 82.6965 147.62 84.0001C149.112 85.3037 150.025 87.1466 150.158 89.1233C150.291 91.1 149.633 93.0485 148.329 94.5404L124.266 122.081C123.621 122.82 122.836 123.424 121.957 123.86C121.078 124.295 120.122 124.553 119.143 124.619C118.164 124.685 117.182 124.557 116.252 124.244C115.323 123.93 114.464 123.436 113.726 122.791C112.987 122.145 112.383 121.361 111.947 120.482C111.512 119.603 111.254 118.646 111.188 117.668C111.122 116.689 111.25 115.707 111.563 114.777C111.877 113.848 112.371 112.989 113.016 112.251ZM94.8765 154.659C93.476 156.059 91.577 156.845 89.597 156.845C87.617 156.845 85.718 156.059 84.3175 154.659L61.9346 132.253C61.2413 131.559 60.6915 130.735 60.3165 129.829C59.9415 128.922 59.7487 127.951 59.7492 126.97C59.7496 125.989 59.9432 125.018 60.319 124.112C60.6948 123.206 61.2454 122.383 61.9393 121.689C62.6332 120.996 63.4569 120.446 64.3633 120.071C65.2697 119.696 66.2411 119.503 67.2221 119.504C68.203 119.504 69.1742 119.698 70.0803 120.074C70.9864 120.449 71.8096 121 72.5029 121.694L94.9092 144.1C96.3044 145.505 97.0848 147.406 97.0786 149.386C97.0725 151.366 96.2804 153.263 94.8765 154.659ZM177.406 94.5404L125.181 154.29C124.508 155.061 123.684 155.686 122.76 156.125C121.835 156.564 120.831 156.809 119.808 156.844H119.556C118.575 156.844 117.603 156.651 116.696 156.275C115.789 155.899 114.966 155.349 114.272 154.654L91.8936 132.248C90.4934 130.847 89.7073 128.946 89.7082 126.965C89.7091 124.984 90.4969 123.085 91.8983 121.685C93.2997 120.284 95.2 119.498 97.1811 119.499C99.1621 119.5 101.062 120.288 102.462 121.689L116.372 135.614C116.734 135.976 117.166 136.259 117.642 136.447C118.118 136.635 118.627 136.723 119.138 136.706C119.649 136.689 120.151 136.567 120.614 136.348C121.076 136.129 121.488 135.817 121.825 135.432L166.17 84.7096C167.474 83.2178 169.317 82.305 171.294 82.1719C173.27 82.0388 175.219 82.6965 176.711 84.0001C178.202 85.3037 179.115 87.1466 179.248 89.1233C179.381 91.1 178.724 93.0485 177.42 94.5404H177.406Z" fill="#4ECB71"/>
</svg>
