<svg width="70" height="70" viewBox="0 0 70 70" fill="none" xmlns="http://www.w3.org/2000/svg">
<path d="M37.9167 8.75C30.9547 8.75 24.2779 11.5156 19.3551 16.4384C14.4323 21.3613 11.6667 28.0381 11.6667 35H2.91667L14.2625 46.3458L14.4667 46.7542L26.25 35H17.5C17.5 23.7125 26.6292 14.5833 37.9167 14.5833C49.2042 14.5833 58.3333 23.7125 58.3333 35C58.3333 46.2875 49.2042 55.4167 37.9167 55.4167C32.2875 55.4167 27.1833 53.1125 23.5083 49.4083L19.3667 53.55C21.7975 55.9942 24.6881 57.933 27.8719 59.2546C31.0556 60.5761 34.4695 61.2543 37.9167 61.25C44.8786 61.25 51.5554 58.4844 56.4782 53.5616C61.4011 48.6387 64.1667 41.9619 64.1667 35C64.1667 28.0381 61.4011 21.3613 56.4782 16.4384C51.5554 11.5156 44.8786 8.75 37.9167 8.75V8.75ZM35 23.3333V37.9167L47.4833 45.325L49.5833 41.7958L39.375 35.7292V23.3333H35Z" fill="#699BF7"/>
</svg>
