<svg width="70" height="70" viewBox="0 0 70 70" fill="none" xmlns="http://www.w3.org/2000/svg">
<g clip-path="url(#clip0_101_34)">
<path d="M66.1792 53.5792L69.5042 50.6625L66.5875 45.6167L62.3583 47.0458C61.425 46.2583 60.375 45.6458 59.2083 45.2083L58.3333 40.8333H52.5L51.625 45.1792C50.4583 45.6167 49.4083 46.2292 48.475 47.0167L44.2458 45.5875L41.3292 50.6333L44.6542 53.55C44.4208 55.0083 44.4208 55.7667 44.6542 57.225L41.3292 60.1417L44.2458 65.1875L48.475 63.7583C49.4083 64.5458 50.4583 65.1583 51.625 65.5958L52.5 70H58.3333L59.2083 65.6542C60.375 65.2167 61.425 64.6042 62.3583 63.8167L66.5875 65.2458L69.5042 60.2L66.1792 57.2833C66.4125 55.7958 66.4125 55.0375 66.1792 53.5792ZM55.4167 61.25C52.2083 61.25 49.5833 58.625 49.5833 55.4167C49.5833 52.2083 52.2083 49.5833 55.4167 49.5833C58.625 49.5833 61.25 52.2083 61.25 55.4167C61.25 58.625 58.625 61.25 55.4167 61.25ZM32.0833 20.4167V36.1958L38.9667 43.0792L42 37.8583L37.9167 33.8042V20.4167H32.0833V20.4167ZM61.25 35C61.25 28.0381 58.4844 21.3613 53.5616 16.4384C48.6387 11.5156 41.9619 8.75 35 8.75C26.7458 8.75 19.3958 12.6 14.5833 18.55V11.6667H8.75V29.1667H26.25V23.3333H18.2583C20.1395 20.636 22.6436 18.4322 25.5581 16.9089C28.4725 15.3857 31.7115 14.5879 35 14.5833C46.2583 14.5833 55.4167 23.7417 55.4167 35H61.25ZM31.675 55.1542C22.9542 53.725 16.0708 46.6958 14.8167 37.9167H8.925C10.3833 51.0417 21.4958 61.25 35 61.25H35.2042L31.675 55.1542Z" fill="#699BF7"/>
</g>
<defs>
<clipPath id="clip0_101_34">
<rect width="70" height="70" fill="white"/>
</clipPath>
</defs>
</svg>
