<svg width="239" height="239" viewBox="0 0 239 239" fill="none" xmlns="http://www.w3.org/2000/svg">
<path d="M89.625 69.7083L109.542 119.5L89.625 169.292H109.542L119.5 144.396L129.458 169.292H149.375L129.458 119.5L149.375 69.7083H129.458L119.5 94.6042L109.542 69.7083H89.625ZM119.5 19.9167C132.577 19.9167 145.527 22.4925 157.609 27.497C169.691 32.5015 180.669 39.8368 189.916 49.0839C199.163 58.3311 206.499 69.3091 211.503 81.3911C216.508 93.4731 219.083 106.423 219.083 119.5C219.083 145.911 208.592 171.241 189.916 189.916C171.241 208.592 145.911 219.083 119.5 219.083C106.423 219.083 93.4731 216.508 81.3911 211.503C69.3091 206.498 58.3311 199.163 49.084 189.916C30.4085 171.241 19.9167 145.911 19.9167 119.5C19.9167 93.0889 30.4085 67.7594 49.084 49.0839C67.7595 30.4084 93.0889 19.9167 119.5 19.9167Z" fill="#F24E1E"/>
</svg>
