<svg width="70" height="70" viewBox="0 0 70 70" fill="none" xmlns="http://www.w3.org/2000/svg">
<g clip-path="url(#clip0_101_17)">
<path d="M26.25 34.2708C25.2831 34.2708 24.3557 34.6549 23.672 35.3387C22.9883 36.0224 22.6042 36.9497 22.6042 37.9167C22.6042 38.8836 22.9883 39.8109 23.672 40.4947C24.3557 41.1784 25.2831 41.5625 26.25 41.5625C26.7288 41.5625 27.2029 41.4682 27.6452 41.285C28.0875 41.1018 28.4894 40.8332 28.828 40.4947C29.1665 40.1561 29.4351 39.7542 29.6183 39.3119C29.8015 38.8695 29.8958 38.3954 29.8958 37.9167C29.8958 37.4379 29.8015 36.9638 29.6183 36.5215C29.4351 36.0791 29.1665 35.6772 28.828 35.3387C28.4894 35.0001 28.0875 34.7316 27.6452 34.5484C27.2029 34.3651 26.7288 34.2708 26.25 34.2708ZM43.75 34.2708C42.7831 34.2708 41.8557 34.6549 41.172 35.3387C40.4883 36.0224 40.1042 36.9497 40.1042 37.9167C40.1042 38.8836 40.4883 39.8109 41.172 40.4947C41.8557 41.1784 42.7831 41.5625 43.75 41.5625C44.7169 41.5625 45.6443 41.1784 46.328 40.4947C47.0117 39.8109 47.3958 38.8836 47.3958 37.9167C47.3958 36.9497 47.0117 36.0224 46.328 35.3387C45.6443 34.6549 44.7169 34.2708 43.75 34.2708ZM35 5.83333C31.1698 5.83333 27.3771 6.58775 23.8384 8.05351C20.2997 9.51928 17.0844 11.6677 14.3761 14.3761C8.90624 19.8459 5.83333 27.2645 5.83333 35C5.83333 42.7355 8.90624 50.1541 14.3761 55.6239C17.0844 58.3323 20.2997 60.4807 23.8384 61.9465C27.3771 63.4123 31.1698 64.1667 35 64.1667C42.7355 64.1667 50.1541 61.0938 55.6239 55.6239C61.0938 50.1541 64.1667 42.7355 64.1667 35C64.1667 31.1698 63.4123 27.3771 61.9465 23.8384C60.4807 20.2997 58.3323 17.0844 55.6239 14.3761C52.9156 11.6677 49.7003 9.51928 46.1616 8.05351C42.6229 6.58775 38.8302 5.83333 35 5.83333M35 58.3333C28.8116 58.3333 22.8767 55.875 18.5008 51.4992C14.125 47.1233 11.6667 41.1884 11.6667 35C11.5792 34.1662 11.5792 33.3255 11.6667 32.4917C18.614 29.4519 24.1129 23.8379 27.0083 16.8292C29.6972 20.6415 33.2626 23.7522 37.4044 25.8992C41.5462 28.0462 46.1431 29.1668 50.8083 29.1667C53.025 29.1667 55.2125 28.9042 57.3708 28.4083C61.0167 40.8333 53.9583 53.7542 41.5917 57.3708C39.375 58.0125 37.2167 58.3333 35 58.3333M0 5.83333C0 4.28624 0.614582 2.80251 1.70854 1.70854C2.80251 0.614582 4.28624 0 5.83333 0L17.5 0V5.83333H5.83333V17.5H0V5.83333ZM70 64.1667C70 65.7138 69.3854 67.1975 68.2915 68.2915C67.1975 69.3854 65.7138 70 64.1667 70H52.5V64.1667H64.1667V52.5H70V64.1667ZM5.83333 70C4.28624 70 2.80251 69.3854 1.70854 68.2915C0.614582 67.1975 0 65.7138 0 64.1667V52.5H5.83333V64.1667H17.5V70H5.83333ZM64.1667 0C65.7138 0 67.1975 0.614582 68.2915 1.70854C69.3854 2.80251 70 4.28624 70 5.83333V17.5H64.1667V5.83333H52.5V0H64.1667Z" fill="#699BF7"/>
</g>
<defs>
<clipPath id="clip0_101_17">
<rect width="70" height="70" fill="white"/>
</clipPath>
</defs>
</svg>
