<svg width="70" height="70" viewBox="0 0 70 70" fill="none" xmlns="http://www.w3.org/2000/svg">
<path d="M55.4167 40.8333C54.5903 40.8333 53.8981 40.5533 53.34 39.9933C52.78 39.4353 52.5 38.7431 52.5 37.9167V32.0833H46.6667C45.8403 32.0833 45.1481 31.8033 44.59 31.2433C44.03 30.6853 43.75 29.9931 43.75 29.1667C43.75 28.3403 44.03 27.6471 44.59 27.0871C45.1481 26.529 45.8403 26.25 46.6667 26.25H52.5V20.4167C52.5 19.5903 52.78 18.8971 53.34 18.3371C53.8981 17.779 54.5903 17.5 55.4167 17.5C56.2431 17.5 56.9353 17.779 57.4933 18.3371C58.0533 18.8971 58.3333 19.5903 58.3333 20.4167V26.25H64.1667C64.9931 26.25 65.6853 26.529 66.2433 27.0871C66.8033 27.6471 67.0833 28.3403 67.0833 29.1667C67.0833 29.9931 66.8033 30.6853 66.2433 31.2433C65.6853 31.8033 64.9931 32.0833 64.1667 32.0833H58.3333V37.9167C58.3333 38.7431 58.0533 39.4353 57.4933 39.9933C56.9353 40.5533 56.2431 40.8333 55.4167 40.8333ZM26.25 35C23.0417 35 20.2951 33.8576 18.0104 31.5729C15.7257 29.2882 14.5833 26.5417 14.5833 23.3333C14.5833 20.125 15.7257 17.3785 18.0104 15.0938C20.2951 12.809 23.0417 11.6667 26.25 11.6667C29.4583 11.6667 32.2049 12.809 34.4896 15.0938C36.7743 17.3785 37.9167 20.125 37.9167 23.3333C37.9167 26.5417 36.7743 29.2882 34.4896 31.5729C32.2049 33.8576 29.4583 35 26.25 35ZM5.83334 58.3333C5.00695 58.3333 4.31473 58.0533 3.75667 57.4933C3.19667 56.9353 2.91667 56.2431 2.91667 55.4167V50.1667C2.91667 48.5139 3.3425 46.9943 4.19417 45.6079C5.04389 44.2235 6.17362 43.1667 7.58334 42.4375C10.5972 40.9306 13.6597 39.7999 16.7708 39.0454C19.8819 38.2929 23.0417 37.9167 26.25 37.9167C29.4583 37.9167 32.6181 38.2929 35.7292 39.0454C38.8403 39.7999 41.9028 40.9306 44.9167 42.4375C46.3264 43.1667 47.4561 44.2235 48.3058 45.6079C49.1575 46.9943 49.5833 48.5139 49.5833 50.1667V55.4167C49.5833 56.2431 49.3033 56.9353 48.7433 57.4933C48.1853 58.0533 47.4931 58.3333 46.6667 58.3333H5.83334Z" fill="#699BF7"/>
</svg>
